<svg xmlns="http://www.w3.org/2000/svg" width="76.344" height="24.67" viewBox="0 0 76.344 24.67">
  <g id="logo-visa" transform="translate(-1097.857 -4605.947)">
    <path id="Path_121" data-name="Path 121" d="M1174.2,4630.221h-5.747c-.21-1.011-.436-2-.614-3-.074-.414-.206-.575-.668-.569-2.3.03-4.61.023-6.914.005a.521.521,0,0,0-.594.43c-.317.95-.665,1.89-1.02,2.827-.048.127-.208.3-.317.3-2.078.018-4.155.013-6.293.013.39-.938.759-1.834,1.133-2.727q4.018-9.586,8.038-19.171a2.829,2.829,0,0,1,2.946-1.964h5.046c.167.779.335,1.547.495,2.316q1.977,9.474,3.955,18.946c.169.809.369,1.612.554,2.417Zm-7.522-8.475c-.612-2.937-1.217-5.834-1.821-8.731l-.074-.014c-1.053,2.9-2.106,5.809-3.17,8.745Z" fill="#eaeced"/>
    <path id="Path_122" data-name="Path 122" d="M1149.164,4605.947c.758.141,1.523.257,2.274.43.685.158,1.356.379,2.084.586q-.55,2.576-1.076,5.032c-.961-.282-1.879-.607-2.823-.815a8.006,8.006,0,0,0-3.906-.034,3.972,3.972,0,0,0-1.47.782,1.341,1.341,0,0,0-.042,2.12,9.122,9.122,0,0,0,1.574,1.133c1.258.757,2.578,1.414,3.8,2.222a5.626,5.626,0,0,1,2.709,4.028,7.181,7.181,0,0,1-3.394,7.334,11.639,11.639,0,0,1-5.469,1.766,19.531,19.531,0,0,1-7.985-.9c-.175-.057-.344-.129-.514-.2a1.476,1.476,0,0,1-.173-.106l1.113-5.211c.443.193.859.387,1.284.558a11.131,11.131,0,0,0,6.3.786,4.481,4.481,0,0,0,1.621-.677,1.716,1.716,0,0,0,.193-2.826,15.154,15.154,0,0,0-2.08-1.368c-1.108-.675-2.284-1.25-3.333-2a5.593,5.593,0,0,1-2.5-3.974,6.794,6.794,0,0,1,2.649-6.274,11.129,11.129,0,0,1,5.922-2.3,2.986,2.986,0,0,0,.356-.085Z" fill="#eaeced"/>
    <path id="Path_123" data-name="Path 123" d="M1126.815,4606.392c-.323.777-.629,1.517-.939,2.256q-4.437,10.584-8.865,21.172a.586.586,0,0,1-.653.422c-1.867-.016-3.734-.022-5.6,0-.4.006-.525-.133-.616-.488-1.582-6.168-3.191-12.329-4.756-18.5a3.25,3.25,0,0,0-1.94-2.38,30.943,30.943,0,0,0-5.35-1.73c-.081-.019-.162-.04-.238-.059.01-.716.01-.716.69-.716q4.9,0,9.8,0a2.842,2.842,0,0,1,2.961,2.434q1.243,6.513,2.46,13.032c.036.19.077.379.131.646.085-.159.144-.248.183-.346q3.044-7.7,6.078-15.4a.492.492,0,0,1,.549-.373c1.895.015,3.79.007,5.685.008C1126.519,4606.373,1126.641,4606.384,1126.815,4606.392Z" fill="#eaeced"/>
    <path id="Path_124" data-name="Path 124" d="M1124.34,4630.235l5.1-23.837h6.19c-.257,1.209-.509,2.4-.763,3.581q-2.1,9.837-4.2,19.677c-.1.456-.258.6-.731.591-1.7-.032-3.394-.012-5.091-.012Z" fill="#eaeced"/>
  </g>
</svg>
