<svg xmlns="http://www.w3.org/2000/svg" width="54.647" height="27.24" viewBox="0 0 54.647 27.24">
  <g id="logo-blik" transform="translate(-1431.392 -4604.663)">
    <path id="Path_125" data-name="Path 125" d="M1448.585,4621.638a10.339,10.339,0,0,0-.253-1.011,7.425,7.425,0,0,0-1.12-2.276c-.108-.18-.216-.325-.325-.506a3.328,3.328,0,0,1-.505-.505,7.433,7.433,0,0,0-1.517-1.3,8.444,8.444,0,0,0-2.529-1.156c-.361-.073-.686-.109-1.047-.181a9.72,9.72,0,0,0-1.77-.072,7.361,7.361,0,0,0-1.517.253l-.867.217c-.217.072-.4.144-.614.216a.585.585,0,0,1-.325.181c-.036.036-.109.036-.145.072,0-.036-.036-.036-.036-.072v-9.68H1431.5c-.037.037-.073.037-.109.072v18.1c.109.072.072.18.072.288s.037.254.037.4c0,.036.036.072.036.108,0,.109.036.217.036.325,0,.036.036.073.036.108a.852.852,0,0,0,.072.29c.036.181.072.325.108.5h0a.76.76,0,0,0,.109.181c.073.145.145.325.217.506,0,.036.036.072.036.108v.036c.036.108.108.181.144.289,0,.036.036.036.036.072.036.036.036.109.072.145v.036c0,.036.037.073.073.108.072.109.109.217.181.325.036.037.072.109.108.145.073.108.181.252.253.361.036.073.108.145.144.217.036.036.072.108.108.144l.109.109.144.144c.036,0,.036.036.072.072l.109.109c0,.036.036.036.036.072l.108.108.145.145c.036.036.072.072.109.108s.071.073.108.109c.072.036.144.108.216.144s.109.108.181.144c.217.145.4.325.614.47a1.98,1.98,0,0,0,.289.181,2.485,2.485,0,0,0,.4.253c0,.036.036.036.072.036.037.036.073.036.109.072h.036c.109.036.253.036.289.144,0,.036.036.036.072.036.072.036.108.036.144.072.073,0,.109.036.145.036l.036.037a.133.133,0,0,0,.108.036c.036.036.072.036.108.072a.222.222,0,0,0,.145.036c.073.036.109.036.145.072a1.556,1.556,0,0,1,.4.073,8.119,8.119,0,0,0,2.637.325,12.543,12.543,0,0,0,1.625-.217,8.881,8.881,0,0,0,2.637-1.083,8.72,8.72,0,0,0,2.528-2.349,7.52,7.52,0,0,0,1.047-1.913,10.954,10.954,0,0,0,.471-1.878,10.124,10.124,0,0,0,.072-1.807A4.888,4.888,0,0,0,1448.585,4621.638Zm-4.66,2.962a.188.188,0,0,1-.072.144,3.278,3.278,0,0,1-.614,1.084,4.324,4.324,0,0,1-2.023,1.372,3.927,3.927,0,0,1-2.239.036c-.109-.036-.217.036-.289-.108a.216.216,0,0,0-.144-.036c-.181-.072-.362-.181-.543-.253-.072-.036-.18-.109-.252-.144-.036-.036-.108-.073-.145-.109l-.108-.108c-.108-.073-.181-.181-.29-.253a2,2,0,0,1-.577-.65l-.036-.036a.035.035,0,0,1-.036-.036.19.19,0,0,0-.072-.145v-.036c0-.036-.036-.072-.072-.109v-.035l-.037-.037c0-.036-.036-.036-.036-.072-.036-.036-.036-.108-.072-.144-.036,0-.036-.036-.036-.072-.145-.109-.145-.289-.181-.433v-.109c-.036-.037-.036-.109-.072-.145a.7.7,0,0,1-.036-.253c-.108-.108-.072-.288-.072-.433v-.506c0-.144-.036-.288.072-.4a2.493,2.493,0,0,1,.325-1.119,4.3,4.3,0,0,1,2.131-2.023,4.186,4.186,0,0,1,1.986-.325,4.075,4.075,0,0,1,2.2.866,3.309,3.309,0,0,1,.9.976.5.5,0,0,1,.072.216v.036c.036.036.036.073.073.108.036,0,.036.037.036.073.036.109.109.181.144.289.037,0,.037.036.037.072.072.181.108.325.18.506v.144c.036.109.036.217.073.326v.36A3.673,3.673,0,0,1,1443.925,4624.6Z" fill="#eaeced"/>
    <path id="Path_126" data-name="Path 126" d="M1451.908,4606.252v25.174a1.078,1.078,0,0,0,.072.362h1.264a.132.132,0,0,0,.108-.036h3.034a1.494,1.494,0,0,0,.036-.4V4605.89h-4.514Z" fill="#eaeced"/>
    <path id="Path_127" data-name="Path 127" d="M1485.967,4631.5c-.47-.614-.976-1.265-1.445-1.878-.144-.181-.253-.4-.4-.579-.036-.072-.109-.108-.145-.18s-.108-.144-.145-.217c-.036-.036-.072-.108-.108-.144-.072-.072-.108-.145-.18-.217a.661.661,0,0,1-.145-.181c-.072-.072-.144-.18-.216-.252-.218-.289-.47-.615-.687-.9a.492.492,0,0,0-.108-.144l-.108-.108-.036-.036c-.036-.072-.109-.108-.145-.181s-.109-.108-.145-.18c-.036-.036-.072-.109-.108-.145l-.109-.109a1.525,1.525,0,0,0-.18-.252l-.108-.109-.109-.108-.036-.036c-.036-.036-.072-.108-.108-.144-.036-.072-.108-.144-.144-.217-.036-.036-.072-.108-.109-.144l-.108-.109-.036-.036v-.036c0-.036-.036-.036-.036-.073l-.108-.108c-.036-.036-.073-.108-.109-.144,0-.036-.036-.072-.072-.108a1.489,1.489,0,0,0-.181-.253l-.108-.108c-.073-.036-.109-.109-.181-.181,0-.036-.036-.073-.072-.108s-.036-.037-.036-.073c-.18-.217-.4-.433-.578-.686-.109-.108-.253-.253-.253-.4,0-.108.144-.252.253-.36.578-.723,1.192-1.445,1.77-2.168.614-.686,1.192-1.408,1.77-2.13s1.156-1.409,1.734-2.131c0-.036.036-.036.072-.073.072-.072.145-.181.217-.253.036-.072.108-.145.144-.217a3.969,3.969,0,0,0,.361-.469h-5.274c-.036.036-.072.036-.108.072a.938.938,0,0,1-.18.217,1.483,1.483,0,0,1-.181.252l-.108.109c0,.109-.036.181-.145.181-.036.036-.072.108-.108.145s-.037.072-.073.108l-.108.108-.108.108c-.036,0-.036.036-.072.072a.945.945,0,0,1-.181.217,1.53,1.53,0,0,1-.18.253l-.108.108c-.29.362-.543.686-.831,1.048l-2.6,3.251c-.037,0-.037.036-.073.036-.144.216-.324.4-.469.613l-.072.072c-.072.109-.18.218-.253.326-.036,0-.036.036-.072.036l-.036.036c0,.036-.037.073-.073.109l-.108.108c-.036.072-.072.108-.108.18a.035.035,0,0,0-.036-.036v-16.614a.666.666,0,0,0-.253-.072h-4.045a.833.833,0,0,0-.289.072V4631.5a.3.3,0,0,0,.108.29h.361s.036,0,.325-.036h3.865l.108-.109v-8.777c-.036-.072,0-.144.072-.072.037.036.037.108.073.18.145.181.289.4.434.579l.541.758c.036.036.036.109.072.181.036.036.073.108.109.144.036.072.109.108.145.18,0,.037.036.073.072.109.072.072.108.18.18.253,0,.035.036.072.072.108a.035.035,0,0,1,.036.036c.037.073.109.145.145.217.036.036.072.108.108.145.145.036.145.144.181.216.036.036.072.109.108.144,0,.036.037.073.073.109,0,.036.036.072.072.109a.186.186,0,0,0,.072.144l.108.108v.037c.037.072.109.144.145.216.036.036.072.108.108.144,0,.036.036.036.036.073.036.072.072.108.108.18a.513.513,0,0,0,.109.145c.072.072.108.145.18.217a.479.479,0,0,0,.109.144c.072.108.144.181.217.289.18.253.4.542.577.795,0,.036.036.036.036.072a1.938,1.938,0,0,1,.181.289c.036,0,.036.036.072.036.145.036.145.18.217.289,0,.036.036.036.036.072.037.036.073.073.109.109,0,.036.036.036.036.072a1.511,1.511,0,0,0,.18.252.187.187,0,0,0,.072.145c.4.542.759,1.083,1.156,1.626h5.779C1486,4631.643,1486,4631.571,1485.967,4631.5Z" fill="#eaeced"/>
    <circle id="Ellipse_52" data-name="Ellipse 52" cx="4.045" cy="4.045" r="4.045" transform="translate(1440.566 4604.663)" fill="#eaeced"/>
    <path id="Path_128" data-name="Path 128" d="M1460.5,4614.847v1.879c0,.072-.036.181-.036.253a.46.46,0,0,1,.036.217v1.336c0,.072-.036.144-.036.216a.709.709,0,0,1,.036.289c0,.47-.036.939-.036,1.409a.331.331,0,0,1,.036.181v2.419c0,.073-.036.109-.036.181a.326.326,0,0,1,.036.181v3c0,.037-.036.109-.036.146a.217.217,0,0,1,.036.144v2.456c0,.036-.036.108-.036.144a.618.618,0,0,1,.036.253v1.734c0,.072-.036.18-.036.289,0,.072,0,.144.072.181.072,0,.18.036.289.036h4.262v-16.11a6.787,6.787,0,0,1-.037-.867C1464.476,4614.775,1460.72,4614.775,1460.5,4614.847Z" fill="#eaeced"/>
    <path id="Path_129" data-name="Path 129" d="M1460.468,4631.57Z" fill="#eaeced"/>
  </g>
</svg>
