<svg xmlns="http://www.w3.org/2000/svg" width="55.637" height="43.305" viewBox="0 0 55.637 43.305">
  <g id="logo-mastercard" transform="translate(-1274.978 -4596.63)">
    <path id="Path_130" data-name="Path 130" d="M1329.5,4639.348v.112h.1a.1.1,0,0,0,.057-.014.05.05,0,0,0,.021-.043.048.048,0,0,0-.021-.041.1.1,0,0,0-.057-.014Zm.1-.079a.191.191,0,0,1,.125.036.118.118,0,0,1,.044.1.116.116,0,0,1-.035.087.167.167,0,0,1-.1.041l.138.159h-.107l-.128-.157h-.042v.157h-.089v-.421Zm-.027.567a.329.329,0,0,0,.137-.029.355.355,0,0,0,.187-.188.366.366,0,0,0,0-.276.364.364,0,0,0-.187-.188.371.371,0,0,0-.137-.026.386.386,0,0,0-.139.026.367.367,0,0,0-.114.076.329.329,0,0,0-.074.112.356.356,0,0,0,0,.276.319.319,0,0,0,.074.113.356.356,0,0,0,.114.075.342.342,0,0,0,.139.029m0-.809a.464.464,0,0,1,.327.134.428.428,0,0,1,.1.144.437.437,0,0,1,0,.352.467.467,0,0,1-.1.145.507.507,0,0,1-.147.1.454.454,0,0,1-.18.036.462.462,0,0,1-.429-.278.448.448,0,0,1,0-.352.465.465,0,0,1,.246-.242.464.464,0,0,1,.183-.036m-42.623-1.622a1.383,1.383,0,1,1,1.386,1.462,1.371,1.371,0,0,1-1.386-1.462m3.7,0v-2.285h-.994v.555a1.733,1.733,0,0,0-1.443-.669,2.4,2.4,0,0,0,0,4.8,1.73,1.73,0,0,0,1.443-.67v.555h.994Zm33.568,0a1.383,1.383,0,1,1,1.386,1.462,1.371,1.371,0,0,1-1.386-1.462m3.7,0v-4.119h-.995v2.389a1.733,1.733,0,0,0-1.443-.669,2.4,2.4,0,0,0,0,4.8,1.73,1.73,0,0,0,1.443-.67v.555h.995Zm-24.938-1.51a1.134,1.134,0,0,1,1.156,1.108h-2.37a1.176,1.176,0,0,1,1.214-1.108m.02-.889a2.4,2.4,0,0,0,.066,4.8,2.776,2.776,0,0,0,1.873-.64l-.486-.736a2.189,2.189,0,0,1-1.33.478,1.269,1.269,0,0,1-1.366-1.119h3.392c.01-.124.02-.249.02-.382a2.19,2.19,0,0,0-2.169-2.4m11.994,2.4a1.384,1.384,0,1,1,1.386,1.462A1.371,1.371,0,0,1,1315,4637.4m3.7,0v-2.285h-.993v.555a1.734,1.734,0,0,0-1.443-.669,2.4,2.4,0,0,0,0,4.8,1.731,1.731,0,0,0,1.443-.67v.555h.993Zm-9.309,0a2.308,2.308,0,0,0,2.438,2.4,2.39,2.39,0,0,0,1.643-.545l-.477-.8a2.008,2.008,0,0,1-1.2.411,1.465,1.465,0,0,1,0-2.925,2.008,2.008,0,0,1,1.2.411l.477-.8a2.4,2.4,0,0,0-1.643-.544,2.308,2.308,0,0,0-2.438,2.4m12.808-2.4a1.349,1.349,0,0,0-1.205.669v-.555h-.984v4.569H1321v-2.561c0-.756.325-1.176.975-1.176a1.6,1.6,0,0,1,.621.115l.306-.937a2.12,2.12,0,0,0-.707-.124m-26.629.478a3.419,3.419,0,0,0-1.863-.478c-1.158,0-1.9.554-1.9,1.462,0,.745.555,1.205,1.577,1.348l.469.067c.545.076.8.22.8.478,0,.353-.363.555-1.042.555a2.428,2.428,0,0,1-1.519-.479l-.468.774a3.3,3.3,0,0,0,1.978.593c1.319,0,2.084-.622,2.084-1.491,0-.8-.6-1.223-1.6-1.367l-.468-.067c-.43-.057-.774-.143-.774-.449,0-.335.325-.535.869-.535a2.949,2.949,0,0,1,1.425.392Zm12.817-.478a1.346,1.346,0,0,0-1.2.669v-.555h-.985v4.569h.993v-2.561c0-.756.325-1.176.975-1.176a1.6,1.6,0,0,1,.621.115l.307-.937a2.129,2.129,0,0,0-.708-.124m-8.477.114h-1.625v-1.386h-1v1.386h-.927v.908h.927v2.085c0,1.06.411,1.691,1.586,1.691a2.334,2.334,0,0,0,1.243-.354l-.287-.851a1.836,1.836,0,0,1-.879.259c-.5,0-.659-.307-.659-.765v-2.065h1.625Zm-14.854,4.569v-2.867a1.7,1.7,0,0,0-1.8-1.816,1.768,1.768,0,0,0-1.606.812,1.678,1.678,0,0,0-1.51-.812,1.51,1.51,0,0,0-1.338.678v-.564h-.994v4.569h1v-2.533a1.069,1.069,0,0,1,1.119-1.214c.66,0,.994.43.994,1.205v2.542h1v-2.533a1.077,1.077,0,0,1,1.118-1.214c.678,0,1,.43,1,1.205v2.542Z" fill="#eaeced"/>
    <path id="Path_131" data-name="Path 131" d="M1330.114,4624.5v-.668h-.174l-.2.459-.2-.459h-.175v.668h.124v-.5l.188.435h.128l.188-.436v.5Zm-1.1,0v-.554h.223v-.113h-.569v.113h.223v.554Z" fill="#eaeced"/>
    <path id="Path_132" data-name="Path 132" d="M1324.055,4600.313c-.006,0-.006,0-.011,0s.005-.006.011-.006a17.182,17.182,0,0,0-21.246.011c-.005,0-.005,0-.011,0s.006-.006.012-.006a17.21,17.21,0,1,0,0,27.065c-.006,0-.006,0-.012-.006l.009,0a17.165,17.165,0,0,0,21.248.01c-.006,0-.006,0-.011-.006s.005,0,.011,0a17.215,17.215,0,0,0,0-27.043Zm-1.348,23.417-1.128.961a13.513,13.513,0,0,1-16.144.094,17.2,17.2,0,0,0,0-21.9,13.53,13.53,0,0,1,16.145.093l1.131.964a13.587,13.587,0,0,1-.006,19.786Z" fill="#eaeced"/>
    <path id="Path_133" data-name="Path 133" d="M1302.81,4627.356l0,0,0,.006c-.006,0-.006,0-.012-.006S1302.8,4627.356,1302.81,4627.356Z" fill="#eaeced"/>
    <path id="Path_134" data-name="Path 134" d="M1302.81,4600.313c-.006,0-.006,0-.012,0s.006-.006.012-.006l0,.006Z" fill="#eaeced"/>
  </g>
</svg>
